<?xml version="1.0" encoding="UTF-8" standalone="no"?>
<svg
   xmlns:dc="http://purl.org/dc/elements/1.1/"
   xmlns:cc="http://creativecommons.org/ns#"
   xmlns:rdf="http://www.w3.org/1999/02/22-rdf-syntax-ns#"
   xmlns:svg="http://www.w3.org/2000/svg"
   xmlns="http://www.w3.org/2000/svg"
   xmlns:sodipodi="http://sodipodi.sourceforge.net/DTD/sodipodi-0.dtd"
   xmlns:inkscape="http://www.inkscape.org/namespaces/inkscape"
   inkscape:version="1.0 (4035a4f, 2020-05-01)"
   sodipodi:docname="safari-pinned-tab.svg"
   id="svg213"
   preserveAspectRatio="xMidYMid meet"
   viewBox="0 0 512.000000 512.000000"
   height="512.000000pt"
   width="512.000000pt"
   version="1.0">
  <defs
     id="defs217" />
  <sodipodi:namedview
     inkscape:current-layer="svg213"
     inkscape:window-maximized="0"
     inkscape:window-y="25"
     inkscape:window-x="1024"
     inkscape:cy="284.65905"
     inkscape:cx="562.37558"
     inkscape:zoom="0.45121449"
     showgrid="false"
     id="namedview215"
     inkscape:window-height="667"
     inkscape:window-width="1280"
     inkscape:pageshadow="2"
     inkscape:pageopacity="0"
     guidetolerance="10"
     gridtolerance="10"
     objecttolerance="10"
     borderopacity="1"
     bordercolor="#666666"
     pagecolor="#ffffff" />
  <metadata
     id="metadata197">
Created by potrace 1.11, written by Peter Selinger 2001-2013
<rdf:RDF>
  <cc:Work
     rdf:about="">
    <dc:format>image/svg+xml</dc:format>
    <dc:type
       rdf:resource="http://purl.org/dc/dcmitype/StillImage" />
  </cc:Work>
</rdf:RDF>
</metadata>
  <path
     style="fill:#0d1128;stroke-width:1.42411"
     class="cls-1"
     d="M 513.4693,-0.24563163 H 331.027 L 257.13013,127.76731 183.23323,-0.24563163 H 0.79093848 V 182.19666 L 128.80388,256.09356 0.79093848,329.99043 v 182.4423 H 183.23323 l 73.8969,-127.9987 73.89687,127.9987 H 513.4693 V 329.99043 L 385.4706,256.09356 513.4693,182.19666 Z M 128.13455,489.64702 23.576643,385.14608 166.38605,346.83761 Z M 23.576643,127.09798 128.10607,22.568557 166.35757,165.34948 Z m 233.553487,214.4562 a 85.446394,85.446394 0 1 1 85.44638,-85.44638 85.446394,85.446394 0 0 1 -85.44638,85.44638 z M 490.68359,385.14608 386.16841,489.66127 347.87418,346.83761 Z M 347.87418,165.34948 386.13993,22.568557 490.68359,127.09798 Z"
     id="path14" />
</svg>
