<?xml version="1.0" standalone="no"?>
<!DOCTYPE svg PUBLIC "-//W3C//DTD SVG 20010904//EN"
 "http://www.w3.org/TR/2001/REC-SVG-20010904/DTD/svg10.dtd">
<svg version="1.0" xmlns="http://www.w3.org/2000/svg"
 width="512.000000pt" height="512.000000pt" viewBox="0 0 512.000000 512.000000"
 preserveAspectRatio="xMidYMid meet">
<metadata>
Created by potrace 1.11, written by Peter Selinger 2001-2013
</metadata>
<g transform="translate(0.000000,512.000000) scale(0.100000,-0.100000)"
fill="#000000" stroke="none">
<path d="M0 2560 l0 -2560 2560 0 2560 0 0 2560 0 2560 -2560 0 -2560 0 0
-2560z m2705 2090 c447 -41 842 -226 1151 -536 625 -629 699 -1635 172 -2346
-51 -68 -58 -84 -50 -102 6 -11 177 -289 380 -616 204 -327 368 -598 366 -602
-3 -5 -185 -8 -404 -8 l-398 0 -223 357 c-122 197 -235 377 -251 400 l-28 42
-103 -49 c-403 -189 -893 -215 -1327 -70 -63 21 -150 54 -193 74 -42 20 -79
36 -81 36 -2 0 -63 -95 -137 -212 -74 -116 -184 -291 -245 -387 l-112 -176
-411 -3 -411 -2 43 67 c24 38 197 312 386 610 l343 543 -61 80 c-162 215 -274
466 -333 745 -20 98 -23 136 -23 350 1 272 12 348 85 568 228 684 838 1166
1562 1236 122 12 180 12 303 1z"/>
<path d="M2345 4523 c-79 -10 -240 -48 -330 -79 -600 -204 -1040 -734 -1131
-1361 -20 -140 -15 -421 11 -557 24 -129 87 -315 151 -441 55 -109 170 -285
191 -292 6 -2 24 18 41 44 16 26 155 246 307 488 152 242 292 463 310 490 17
28 175 277 350 555 174 278 323 511 330 518 10 11 140 -193 665 -1037 359
-578 657 -1048 662 -1045 6 4 37 47 70 98 236 358 328 769 267 1191 -49 337
-211 662 -454 914 -136 140 -277 247 -432 327 -280 146 -487 195 -803 192 -96
0 -188 -3 -205 -5z"/>
<path d="M2555 3648 c-10 -18 -64 -105 -120 -193 -56 -88 -299 -473 -540 -855
-241 -382 -457 -724 -480 -760 -23 -36 -54 -85 -69 -109 l-28 -43 29 -30 c42
-45 194 -171 262 -217 l60 -41 37 57 c20 32 77 121 125 198 49 77 194 307 323
510 129 204 276 436 327 518 51 81 95 147 98 147 3 0 25 -30 47 -67 122 -200
828 -1330 838 -1340 9 -10 30 2 99 52 90 67 247 211 247 227 0 8 -126 215
-356 583 -52 83 -267 429 -478 770 -211 340 -388 621 -393 622 -5 2 -17 -11
-28 -29z"/>
<path d="M2395 2308 c-376 -594 -441 -697 -526 -830 -62 -96 -84 -140 -76
-145 108 -69 379 -151 570 -173 146 -17 400 -8 532 20 171 36 455 142 455 170
0 5 -15 34 -34 63 -35 53 -499 800 -650 1044 -44 73 -84 132 -87 133 -3 0 -86
-127 -184 -282z"/>
<path d="M3825 1538 c-60 -60 -172 -152 -238 -197 -29 -20 -46 -38 -43 -46 2
-7 103 -171 223 -364 l218 -351 263 0 263 0 -23 38 c-121 200 -604 972 -608
970 -3 -1 -27 -23 -55 -50z"/>
<path d="M1224 1538 c-15 -24 -145 -230 -289 -458 -144 -228 -274 -434 -289
-458 l-26 -42 265 0 264 0 44 68 c125 192 407 643 407 649 0 5 -18 18 -39 30
-49 28 -167 122 -248 197 l-62 57 -27 -43z"/>
</g>
</svg>
