<svg id="Layer_1" data-name="Layer 1" xmlns="http://www.w3.org/2000/svg" xmlns:xlink="http://www.w3.org/1999/xlink" viewBox="0 0 400 105.37"><defs><style>.cls-1,.cls-4{fill:none;}.cls-2{fill:#fff;stroke-width:1.68px;}.cls-2,.cls-4{stroke:#18004e;}.cls-3{fill:#18004e;}.cls-4{stroke-miterlimit:10;stroke-width:0.56px;}.cls-5{clip-path:url(#clip-path);}</style><clipPath id="clip-path"><rect class="cls-1" width="400" height="105.37"/></clipPath></defs><path class="cls-2" d="M7.18.84A6.41,6.41,0,0,0,.84,7.31V98.05a6.4,6.4,0,0,0,6.34,6.47H392.82a6.4,6.4,0,0,0,6.34-6.47V7.31A6.41,6.41,0,0,0,392.82.84H7.18"/><rect class="cls-1" width="400" height="105.37"/><rect class="cls-1" width="400" height="105.37"/><rect class="cls-1" width="400" height="105.37"/><rect class="cls-1" width="400" height="105.37"/><rect class="cls-1" width="400" height="105.37"/><rect class="cls-1" width="400" height="105.37"/><rect class="cls-1" width="400" height="105.37"/><rect class="cls-1" width="400" height="105.37"/><path class="cls-3" d="M285.87,28.22h-3l0-5.88,3,0c2,0,3.27,1.17,3.28,3s-1.22,2.91-3.25,2.93m.39-8-5.89,0,.09,16.88h2.42l0-6.79,3.47,0a5,5,0,1,0-.05-10.09"/><polygon class="cls-3" points="305.94 37.08 305.94 34.91 298.01 34.91 298.01 29.74 305.2 29.74 305.2 27.55 298.01 27.55 298.01 22.36 305.94 22.36 305.94 20.19 295.67 20.19 295.67 37.08 305.94 37.08"/><polygon class="cls-3" points="372.22 77.85 372.22 85.1 374.62 85.1 374.62 77.85 380.73 67.92 377.99 67.92 373.49 75.65 368.99 67.92 366.1 67.92 372.22 77.85"/><path class="cls-3" d="M354.37,75.54V70.27h3.74c1.92,0,3.21.87,3.21,2.67s-1.29,2.6-3.21,2.6ZM363.74,73a4.89,4.89,0,0,0-5.2-5h-6.48V85.1h2.31V78.18h2.68l3.89,6.92h2.73l-4.05-7.21A4.85,4.85,0,0,0,363.74,73"/><polygon class="cls-3" points="348.68 70.14 348.68 67.92 334.68 67.92 334.68 70.14 340.48 70.14 340.48 84.98 342.88 84.98 342.88 70.14 348.68 70.14"/><path class="cls-3" d="M331.7,72.05c-.37-1.81-1.87-4.13-5.63-4.13a5.3,5.3,0,0,0-5.5,5c0,2.49,1.7,4,4.07,4.55l2.37.52c1.66.35,2.49,1.39,2.49,2.58,0,1.46-1.13,2.66-3.43,2.66a3.78,3.78,0,0,1-4-3.57l-2.21.7c.31,2.37,2.21,5,6.22,5,3.55,0,5.75-2.34,5.75-4.93,0-2.32-1.55-4.06-4.32-4.67L325,75.12a2.41,2.41,0,0,1-2.13-2.41,3,3,0,0,1,3.22-2.78,3.38,3.38,0,0,1,3.52,2.85Z"/><rect class="cls-3" x="312.79" y="67.92" width="2.45" height="17.18"/><path class="cls-3" d="M307.47,85V76.68H299.3V78.8h5.93c-.1,1.76-1.47,4.46-5.28,4.46-3.06,0-6-2.24-6-6.77s3-6.73,6.05-6.73a5.41,5.41,0,0,1,5.43,3.91l2.14-.92A7.61,7.61,0,0,0,300,67.59c-4.22,0-8.46,3.11-8.46,8.9s4,8.92,8.3,8.92a6.11,6.11,0,0,0,5.47-2.77l.21,2.4Z"/><polygon class="cls-3" points="288.28 85.01 288.28 82.85 280.35 82.85 280.35 77.68 287.54 77.68 287.54 75.49 280.35 75.49 280.35 70.3 288.28 70.3 288.28 68.13 278.01 68.13 278.01 85.01 288.28 85.01"/><polygon class="cls-3" points="370.97 60.9 370.97 57.3 363.68 57.3 363.68 43.99 359.91 43.99 359.91 60.9 370.97 60.9"/><polygon class="cls-3" points="355.75 60.9 355.75 57.32 348.79 57.32 348.79 54.08 355.08 54.08 355.08 50.77 348.79 50.77 348.79 47.54 355.73 47.54 355.73 43.99 345.02 43.99 345.02 60.9 355.75 60.9"/><path class="cls-3" d="M334.35,51.47H332V47.19h2.4a2.1,2.1,0,0,1,2.39,2.14,2.14,2.14,0,0,1-2.39,2.14M337.21,54a4.66,4.66,0,0,0,3.34-4.61c0-3-2.15-5.13-5.49-5.13h-6.74V60.7H332V54.44h1.52l3,6.26h4.15Z"/><path class="cls-3" d="M314.66,54.11l2.07-5.85,2,5.85ZM319,44.22h-4.37L308.24,60.7h4l1.22-3.29H320l1.22,3.29h4.11Z"/><path class="cls-3" d="M301.58,51.47h-2.27V47.19h2.27a2.16,2.16,0,1,1,0,4.28m.38-7.25h-6.28V60.7h3.63V54.77H302c3.44,0,5.8-2.08,5.8-5.28s-2.36-5.27-5.8-5.27"/><polygon class="cls-3" points="325.12 37.08 325.12 20.19 322.78 20.19 322.78 33.15 314.35 20.19 311.23 20.19 311.23 37.08 313.57 37.08 313.57 23.31 322.69 37.08 325.12 37.08"/><path class="cls-3" d="M269,34.77c-2.91,0-5.64-2.09-5.64-6.17s2.73-6.16,5.64-6.16,5.65,2.07,5.65,6.16-2.73,6.17-5.65,6.17m-.08-14.56a8.06,8.06,0,0,0-8.12,8.42,8.13,8.13,0,1,0,16.24,0,8.06,8.06,0,0,0-8.12-8.42"/><path class="cls-3" d="M266.08,54.11l2.08-5.85,2,5.85Zm4.32-9.89H266L259.66,60.7h4l1.21-3.29h6.54l1.22,3.29h4.1Z"/><path class="cls-3" d="M286.44,51.47h-2.3V47.19h2.3a2.16,2.16,0,1,1,0,4.28m.38-7.25h-6.31V60.7h3.63V54.77h2.68c3.44,0,5.8-2.08,5.8-5.28s-2.36-5.27-5.8-5.27"/><path class="cls-3" d="M239.53,83.12h8.26L217.85,34.85,187.39,83.12h8.3l22.1-35Zm11.52,2H238.52L217.77,51.74,196.69,85.1H184.11l33.75-53.5Z"/><path class="cls-3" d="M217.53,21.77a26.28,26.28,0,1,0,26.28,26.28,26.3,26.3,0,0,0-26.28-26.28m0,54.36a28.09,28.09,0,1,1,28.09-28.08,28.11,28.11,0,0,1-28.09,28.08"/><path class="cls-3" d="M264,75.54V70.27h3.9c1.92,0,3.21.87,3.21,2.67s-1.29,2.6-3.21,2.6ZM273.56,73a4.89,4.89,0,0,0-5.2-5h-6.64V85.1H264V78.18h2.85l3.88,6.92h2.73l-4.05-7.21A4.85,4.85,0,0,0,273.56,73"/><rect class="cls-1" width="400" height="105.37"/><line class="cls-4" x1="164.83" y1="16.32" x2="164.83" y2="89.04"/><g class="cls-5"><path class="cls-3" d="M136.38,59.58c2.75,0,4.48.93,4.48,3.26,0,2.18-1.48,3-4.15,3a15.56,15.56,0,0,1-2.42-.2V59.76a11.06,11.06,0,0,1,2.09-.18m-4.1,13.76a2.29,2.29,0,0,0,1,.15,2.16,2.16,0,0,0,1-.15V67.46a23.81,23.81,0,0,0,2.71.18c.34,0,.82,0,1,0l3.55,5.73a3.44,3.44,0,0,0,1.33.17,2.16,2.16,0,0,0,1.07-.17L140,67.13a4.34,4.34,0,0,0,2.93-4.42c0-3.42-2.46-4.9-6.57-4.9a21.62,21.62,0,0,0-4.08.35Zm-12.39-6.06,1.18-3.35a40.69,40.69,0,0,0,1.42-4.77h.09A37.91,37.91,0,0,0,124,64l1.17,3.32Zm7.44,6a2.49,2.49,0,0,0,1.09.17,2.2,2.2,0,0,0,1-.17L123.82,58a5.56,5.56,0,0,0-2.48,0l-5.66,15.33a2.07,2.07,0,0,0,1,.17,2.56,2.56,0,0,0,1.09-.17L119.3,69h6.47Zm-24.92-7.75c0-3.86,1.69-6.23,4.88-6.23,3,0,4.88,2.37,4.88,6.23,0,4.11-1.7,6.55-4.88,6.55s-4.88-2.4-4.88-6.55m4.88-8c-4.1,0-7,3-7,8,0,5.57,2.52,8.39,7,8.39,4.24,0,7-3,7-8.39,0-5.23-2.82-8-7-8M83.2,58V73.45h10a2.11,2.11,0,0,0,.15-.91,2,2,0,0,0-.15-.89h-8V66.48h7.21a2,2,0,0,0,.16-.88,1.9,1.9,0,0,0-.16-.87H85.21V59.8H93A2.69,2.69,0,0,0,93,58ZM76.52,73.34a2.29,2.29,0,0,0,1,.15,2.16,2.16,0,0,0,1-.15V58.14a2.16,2.16,0,0,0-1-.15,2.29,2.29,0,0,0-1,.15v6.44H68.35V58.14a2.19,2.19,0,0,0-1-.15,2.29,2.29,0,0,0-1,.15v15.2a2.29,2.29,0,0,0,1,.15,2.19,2.19,0,0,0,1-.15v-7h8.17ZM63.29,59.83a2.16,2.16,0,0,0,.15-.91,2,2,0,0,0-.15-.89H51.67a1.87,1.87,0,0,0-.16.89,2,2,0,0,0,.16.91h4.81V73.34a2.29,2.29,0,0,0,1,.15,2.19,2.19,0,0,0,1-.15V59.83Zm-24.23,8v5.55a2.29,2.29,0,0,0,1,.15,2.19,2.19,0,0,0,1-.15V67.77l5.21-9.61a2.2,2.2,0,0,0-1-.17,2.66,2.66,0,0,0-1.11.17l-3,5.57a14.17,14.17,0,0,0-1,2.66h-.09a11.62,11.62,0,0,0-1-2.61l-3-5.62A2.64,2.64,0,0,0,34.89,58a2.52,2.52,0,0,0-1.09.17ZM23.93,59.74a11.28,11.28,0,0,1,2.26-.16c2.53,0,4.17.76,4.17,2.55,0,1.62-1.33,2.45-3.39,2.45h-3Zm0,6.59h3c2.59,0,4.19.91,4.19,2.75s-1.64,2.71-4.44,2.71c-1,0-1.95,0-2.79-.09ZM30,65.26a3.28,3.28,0,0,0,2.39-3.39c0-2.91-2.59-4-6.19-4a22,22,0,0,0-4.3.38V73.38c1.4.14,3.17.18,5,.18,3.57,0,6.34-1.26,6.34-4.46,0-2.22-1.33-3.28-3.21-3.75Z"/><path class="cls-3" d="M117.52,34.42a9.94,9.94,0,0,1,1.82-.13c3.82,0,6.41,2,6.41,6.21,0,4-2.24,5.91-5.86,5.91-.75,0-1.59,0-2.37-.09Zm-2,13.65c1.49.11,3,.13,4.44.13,4.42,0,7.9-2.46,7.9-7.81s-3.51-7.87-8.46-7.87a23,23,0,0,0-3.88.28Zm-13.71-15.4V48.09h10a2.09,2.09,0,0,0,.16-.91,2,2,0,0,0-.16-.88h-8V41.12H111a2,2,0,0,0,.15-.88,1.92,1.92,0,0,0-.15-.87h-7.21V34.44h7.76a2,2,0,0,0,.16-.88,2,2,0,0,0-.16-.89ZM91.25,34.22c2.75,0,4.48.93,4.48,3.27,0,2.17-1.48,3-4.15,3a15.56,15.56,0,0,1-2.42-.2V34.4a11.06,11.06,0,0,1,2.09-.18M87.15,48a2.26,2.26,0,0,0,1,.15,2.16,2.16,0,0,0,1-.15V42.1a23.81,23.81,0,0,0,2.71.18c.33,0,.82,0,1-.05L96.42,48a3.44,3.44,0,0,0,1.33.17A2.09,2.09,0,0,0,98.81,48l-3.94-6.19a4.33,4.33,0,0,0,2.92-4.42c0-3.42-2.46-4.9-6.56-4.9a21.54,21.54,0,0,0-4.08.35ZM73.43,32.67V48.09h10a2,2,0,0,0,.16-.91,1.82,1.82,0,0,0-.16-.88h-8V41.12h7.21a2,2,0,0,0,.16-.88,1.9,1.9,0,0,0-.16-.87H75.45V34.44h7.77a2,2,0,0,0,.15-.88,2,2,0,0,0-.15-.89ZM65,46.87a29.46,29.46,0,0,0-.58-3.13L61.83,32.63a5.75,5.75,0,0,0-1.4-.14,5.57,5.57,0,0,0-1.38.14L56.28,43.74a27.7,27.7,0,0,0-.53,3.13h-.09a27.76,27.76,0,0,0-.53-3.17L52.49,32.8a2.24,2.24,0,0,0-1.05-.17,2,2,0,0,0-1,.17l3.84,15.33a5.25,5.25,0,0,0,1.35.14A5.43,5.43,0,0,0,57,48.13l2.64-10.6a29.35,29.35,0,0,0,.67-3.62h.09c.15,1.18.42,2.51.66,3.58l2.49,10.64a5.75,5.75,0,0,0,1.4.14,5.31,5.31,0,0,0,1.35-.14l4-15.35a1.81,1.81,0,0,0-.93-.15,2.14,2.14,0,0,0-1,.15l-2.82,11a22.67,22.67,0,0,0-.55,3ZM36.73,40.21c0-3.86,1.69-6.23,4.88-6.23,3,0,4.89,2.37,4.89,6.23,0,4.11-1.71,6.55-4.89,6.55s-4.88-2.39-4.88-6.55m4.88-8.05c-4.1,0-7,3-7,8.05,0,5.57,2.52,8.39,7,8.39,4.24,0,7-3,7-8.39,0-5.23-2.82-8.05-7-8.05M26.06,34.22c2.79,0,4.55,1,4.55,3.53,0,2.35-1.53,3.26-4.22,3.26a16,16,0,0,1-2.46-.19V34.4a11.27,11.27,0,0,1,2.13-.18M21.91,48a2.29,2.29,0,0,0,1,.15,2.19,2.19,0,0,0,1-.15V42.61a24.24,24.24,0,0,0,2.75.18c3.46,0,6-1.58,6-5.19S30.19,32.45,26,32.45a22.16,22.16,0,0,0-4.13.35Z"/></g></svg>