<?xml version="1.0" encoding="utf-8"?>
<!-- Generator: Adobe Illustrator 25.3.0, SVG Export Plug-In . SVG Version: 6.00 Build 0)  -->
<svg version="1.1" id="Layer_1" xmlns="http://www.w3.org/2000/svg" xmlns:xlink="http://www.w3.org/1999/xlink" x="0px" y="0px"
	 viewBox="0 0 400 105.37" style="enable-background:new 0 0 400 105.37;" xml:space="preserve">
<style type="text/css">
	.st0{fill:#FFFFFF;stroke:#18004E;stroke-width:1.68;}
	.st1{fill:none;}
	.st2{fill:none;stroke:#18004E;stroke-width:0.56;stroke-miterlimit:10;}
	.st3{clip-path:url(#SVGID_2_);}
	.st4{fill:#18004E;}
</style>
<path class="st0" d="M7.18,0.84C3.64,0.88,0.81,3.77,0.84,7.31v90.74c-0.04,3.53,2.79,6.43,6.33,6.47c0,0,0.01,0,0.01,0h385.64
	c3.53-0.03,6.37-2.92,6.34-6.46c0,0,0-0.01,0-0.01V7.31c0.03-3.54-2.8-6.43-6.34-6.47H7.18"/>
<rect y="0" class="st1" width="400" height="105.37"/>
<rect y="0" class="st1" width="400" height="105.37"/>
<rect y="0" class="st1" width="400" height="105.37"/>
<rect y="0" class="st1" width="400" height="105.37"/>
<rect y="0" class="st1" width="400" height="105.37"/>
<rect y="0" class="st1" width="400" height="105.37"/>
<rect y="0" class="st1" width="400" height="105.37"/>
<rect y="0" class="st1" width="400" height="105.37"/>
<rect y="0" class="st1" width="400" height="105.37"/>
<line class="st2" x1="164.83" y1="16.32" x2="164.83" y2="89.04"/>
<g>
	<defs>
		<rect id="SVGID_1_" y="0" width="400" height="105.37"/>
	</defs>
	<clipPath id="SVGID_2_">
		<use xlink:href="#SVGID_1_"  style="overflow:visible;"/>
	</clipPath>
	<g class="st3">
		<path class="st4" d="M136.38,59.58c2.75,0,4.48,0.93,4.48,3.26c0,2.18-1.48,3-4.15,3c-0.81,0-1.62-0.07-2.42-0.2v-5.88
			C134.98,59.63,135.68,59.57,136.38,59.58 M132.28,73.34c0.32,0.12,0.66,0.18,1,0.15c0.34,0.03,0.68-0.02,1-0.15v-5.88
			c0.9,0.11,1.8,0.17,2.71,0.18c0.34,0,0.82,0,1,0l3.55,5.73c0.43,0.14,0.88,0.2,1.33,0.17c0.37,0.04,0.73-0.02,1.07-0.17L140,67.13
			c1.87-0.64,3.07-2.45,2.93-4.42c0-3.42-2.46-4.9-6.57-4.9c-1.37-0.01-2.73,0.1-4.08,0.35L132.28,73.34z M119.89,67.28l1.18-3.35
			c0.57-1.56,1.04-3.15,1.42-4.77h0.09c0.37,1.64,0.84,3.26,1.42,4.84l1.17,3.32L119.89,67.28z M127.33,73.28
			c0.35,0.14,0.72,0.2,1.09,0.17c0.34,0.02,0.68-0.04,1-0.17L123.82,58c-0.82-0.19-1.66-0.19-2.48,0l-5.66,15.33
			c0.31,0.14,0.66,0.2,1,0.17c0.37,0.02,0.74-0.03,1.09-0.17L119.3,69h6.47L127.33,73.28z M102.41,65.53c0-3.86,1.69-6.23,4.88-6.23
			c3,0,4.88,2.37,4.88,6.23c0,4.11-1.7,6.55-4.88,6.55S102.41,69.68,102.41,65.53 M107.29,57.53c-4.1,0-7,3-7,8
			c0,5.57,2.52,8.39,7,8.39c4.24,0,7-3,7-8.39C114.29,60.3,111.47,57.53,107.29,57.53 M83.2,58v15.45h10
			c0.12-0.29,0.17-0.6,0.15-0.91c0.02-0.3-0.03-0.61-0.15-0.89h-8v-5.17h7.21c0.12-0.28,0.17-0.58,0.16-0.88
			c0.02-0.3-0.04-0.6-0.16-0.87h-7.2V59.8H93c0.21-0.58,0.21-1.22,0-1.8H83.2z M76.52,73.34c0.32,0.12,0.66,0.18,1,0.15
			c0.34,0.03,0.68-0.02,1-0.15v-15.2c-0.32-0.13-0.66-0.18-1-0.15c-0.34-0.03-0.68,0.03-1,0.15v6.44h-8.17v-6.44
			c-0.32-0.13-0.66-0.18-1-0.15c-0.34-0.03-0.68,0.03-1,0.15v15.2c0.32,0.12,0.66,0.18,1,0.15c0.34,0.03,0.68-0.02,1-0.15v-7h8.17
			V73.34z M63.29,59.83c0.11-0.29,0.17-0.6,0.15-0.91c0.02-0.3-0.03-0.61-0.15-0.89H51.67c-0.13,0.28-0.18,0.58-0.16,0.89
			c-0.02,0.31,0.04,0.62,0.16,0.91h4.81v13.51c0.32,0.12,0.66,0.18,1,0.15c0.34,0.03,0.68-0.02,1-0.15V59.83H63.29z M39.06,67.83
			v5.55c0.32,0.12,0.66,0.18,1,0.15c0.34,0.03,0.68-0.02,1-0.15v-5.61l5.21-9.61c-0.32-0.13-0.66-0.19-1-0.17
			c-0.38-0.02-0.76,0.03-1.11,0.17l-3,5.57c-0.42,0.85-0.76,1.74-1,2.66h-0.09c-0.23-0.91-0.56-1.78-1-2.61l-3-5.62
			c-0.38-0.14-0.78-0.2-1.18-0.16c-0.37-0.02-0.74,0.03-1.09,0.17L39.06,67.83z M23.93,59.74c0.75-0.13,1.5-0.18,2.26-0.16
			c2.53,0,4.17,0.76,4.17,2.55c0,1.62-1.33,2.45-3.39,2.45h-3L23.93,59.74z M23.93,66.33h3c2.59,0,4.19,0.91,4.19,2.75
			s-1.64,2.71-4.44,2.71c-1,0-1.95,0-2.79-0.09L23.93,66.33z M30,65.26c1.5-0.42,2.5-1.84,2.39-3.39c0-2.91-2.59-4-6.19-4
			c-1.44-0.01-2.88,0.11-4.3,0.38v15.13c1.4,0.14,3.17,0.18,5,0.18c3.57,0,6.34-1.26,6.34-4.46c0-2.22-1.33-3.28-3.21-3.75L30,65.26
			z"/>
		<path class="st4" d="M117.52,34.42c0.6-0.1,1.21-0.14,1.82-0.13c3.82,0,6.41,2,6.41,6.21c0,4-2.24,5.91-5.86,5.91
			c-0.75,0-1.59,0-2.37-0.09V34.42z M115.52,48.07c1.49,0.11,3,0.13,4.44,0.13c4.42,0,7.9-2.46,7.9-7.81s-3.51-7.87-8.46-7.87
			c-1.3-0.02-2.6,0.08-3.88,0.28L115.52,48.07z M101.81,32.67v15.42h10c0.12-0.29,0.18-0.6,0.16-0.91c0.01-0.3-0.04-0.6-0.16-0.88
			h-8v-5.18H111c0.12-0.28,0.17-0.58,0.15-0.88c0.02-0.3-0.03-0.6-0.15-0.87h-7.21v-4.93h7.76c0.12-0.28,0.17-0.58,0.16-0.88
			c0.02-0.3-0.04-0.61-0.16-0.89H101.81z M91.25,34.22c2.75,0,4.48,0.93,4.48,3.27c0,2.17-1.48,3-4.15,3c-0.81,0-1.62-0.07-2.42-0.2
			V34.4C89.85,34.27,90.55,34.21,91.25,34.22 M87.15,48c0.32,0.12,0.66,0.18,1,0.15c0.34,0.03,0.68-0.02,1-0.15v-5.9
			c0.9,0.11,1.8,0.17,2.71,0.18c0.33,0,0.82,0,1-0.05L96.42,48c0.43,0.14,0.88,0.2,1.33,0.17c0.36,0.04,0.73-0.02,1.06-0.17
			l-3.94-6.19c1.87-0.64,3.07-2.45,2.92-4.42c0-3.42-2.46-4.9-6.56-4.9c-1.37-0.01-2.73,0.1-4.08,0.35L87.15,48z M73.43,32.67v15.42
			h10c0.12-0.29,0.18-0.6,0.16-0.91c0.02-0.3-0.03-0.6-0.16-0.88h-8v-5.18h7.21c0.12-0.28,0.17-0.58,0.16-0.88
			c0.02-0.3-0.04-0.6-0.16-0.87h-7.19v-4.93h7.77c0.12-0.28,0.17-0.58,0.15-0.88c0.02-0.3-0.03-0.61-0.15-0.89H73.43z M65,46.87
			c-0.14-1.05-0.33-2.1-0.58-3.13l-2.59-11.11c-0.46-0.1-0.93-0.15-1.4-0.14c-0.46-0.01-0.93,0.04-1.38,0.14l-2.77,11.11
			c-0.24,1.03-0.41,2.08-0.53,3.13h-0.09c-0.12-1.07-0.29-2.12-0.53-3.17l-2.64-10.9c-0.33-0.14-0.69-0.2-1.05-0.17
			c-0.34-0.03-0.69,0.03-1,0.17l3.84,15.33c0.44,0.1,0.9,0.15,1.35,0.14c0.46,0.01,0.92-0.04,1.37-0.14l2.64-10.6
			c0.3-1.19,0.52-2.4,0.67-3.62h0.09c0.15,1.18,0.42,2.51,0.66,3.58l2.49,10.64c0.46,0.1,0.93,0.15,1.4,0.14
			c0.45,0.01,0.91-0.04,1.35-0.14l4-15.35c-0.29-0.13-0.61-0.18-0.93-0.15c-0.34-0.03-0.68,0.02-1,0.15l-2.82,11
			c-0.25,0.99-0.43,1.99-0.55,3L65,46.87z M36.73,40.21c0-3.86,1.69-6.23,4.88-6.23c3,0,4.89,2.37,4.89,6.23
			c0,4.11-1.71,6.55-4.89,6.55S36.73,44.37,36.73,40.21 M41.61,32.16c-4.1,0-7,3-7,8.05c0,5.57,2.52,8.39,7,8.39c4.24,0,7-3,7-8.39
			C48.61,34.98,45.79,32.16,41.61,32.16 M26.06,34.22c2.79,0,4.55,1,4.55,3.53c0,2.35-1.53,3.26-4.22,3.26
			c-0.82,0-1.65-0.06-2.46-0.19V34.4C24.63,34.27,25.35,34.21,26.06,34.22 M21.91,48c0.32,0.12,0.66,0.18,1,0.15
			c0.34,0.03,0.68-0.02,1-0.15v-5.39c0.91,0.11,1.83,0.17,2.75,0.18c3.46,0,6-1.58,6-5.19s-2.47-5.15-6.66-5.15
			c-1.38-0.01-2.77,0.1-4.13,0.35L21.91,48z"/>
	</g>
</g>
<g>
	<g>
		<g>
			<path class="st4" d="M251.49,85.16h-12.51l-20.73-33.33l-21.06,33.33h-12.57l33.72-53.45L251.49,85.16z M239.99,83.18h8.25
				l-29.91-48.22L187.9,83.18h8.29l22.07-34.93L239.99,83.18z"/>
		</g>
		<g>
			<path class="st4" d="M218.01,76.2c-15.47,0-28.06-12.59-28.06-28.06c0-15.47,12.59-28.06,28.06-28.06
				c15.47,0,28.06,12.59,28.06,28.06C246.07,63.61,233.48,76.2,218.01,76.2z M218.01,21.89c-14.47,0-26.25,11.77-26.25,26.25
				s11.77,26.25,26.25,26.25s26.25-11.78,26.25-26.25S232.48,21.89,218.01,21.89z"/>
		</g>
	</g>
	<g>
		<path class="st4" d="M265.66,36.73c-1.03-0.43-1.94-1.03-2.72-1.82c-0.78-0.78-1.39-1.7-1.83-2.75c-0.44-1.05-0.65-2.21-0.65-3.48
			c0-1.26,0.22-2.42,0.65-3.48c0.44-1.05,1.04-1.97,1.82-2.74c0.77-0.77,1.68-1.38,2.72-1.81c1.04-0.43,2.15-0.64,3.34-0.64
			c1.2,0,2.32,0.21,3.35,0.64c1.03,0.43,1.94,1.03,2.72,1.81c0.78,0.78,1.39,1.69,1.83,2.75c0.44,1.06,0.65,2.22,0.65,3.46
			c0,1.26-0.22,2.42-0.65,3.48c-0.44,1.05-1.05,1.97-1.83,2.75c-0.78,0.78-1.69,1.39-2.72,1.82c-1.03,0.43-2.15,0.64-3.35,0.64
			C267.8,37.38,266.69,37.16,265.66,36.73z M272.27,34.43c0.95-0.59,1.69-1.39,2.23-2.39c0.54-1,0.81-2.12,0.81-3.35
			c0-1.23-0.27-2.35-0.81-3.34c-0.54-0.99-1.29-1.79-2.23-2.38c-0.95-0.59-2.04-0.89-3.27-0.89c-1.23,0-2.32,0.3-3.27,0.89
			c-0.95,0.59-1.69,1.39-2.23,2.38c-0.54,0.99-0.81,2.11-0.81,3.34c0,1.23,0.27,2.35,0.81,3.35c0.54,1,1.29,1.8,2.25,2.39
			c0.96,0.59,2.04,0.89,3.26,0.89C270.23,35.32,271.32,35.02,272.27,34.43z"/>
		<path class="st4" d="M281,20.29h5.94c1.11,0,2.09,0.21,2.93,0.63c0.84,0.42,1.5,1.02,1.98,1.79c0.47,0.78,0.71,1.7,0.71,2.76
			c0,1.05-0.24,1.97-0.71,2.75c-0.47,0.78-1.13,1.38-1.98,1.81c-0.84,0.42-1.82,0.63-2.93,0.63h-3.72v6.43H281V20.29z M287,28.64
			c1.01,0,1.81-0.29,2.42-0.86c0.6-0.57,0.9-1.34,0.9-2.3c0-0.98-0.3-1.75-0.9-2.31c-0.6-0.56-1.41-0.85-2.42-0.85h-3.79v6.32H287z"
			/>
		<path class="st4" d="M296.24,20.29h10.95v2.03h-8.73v5.33h8.28v2.03h-8.28v5.39h8.73v2.03h-10.95V20.29z"/>
		<path class="st4" d="M311.92,20.29h1.85l8.83,12.41V20.29h2.23V37.1h-1.85l-8.85-12.59V37.1h-2.21V20.29z"/>
	</g>
	<g>
		<path class="st4" d="M266.01,44.28h4.65l5.69,16.82h-3.81l-1.13-3.43h-6.16l-1.13,3.43h-3.79L266.01,44.28z M270.43,54.61
			l-2.1-6.48l-2.12,6.48H270.43z"/>
		<path class="st4" d="M279.21,44.28h6.46c1.16,0,2.19,0.2,3.08,0.61c0.89,0.41,1.6,1.01,2.11,1.81c0.51,0.8,0.77,1.78,0.77,2.96
			c0,1.14-0.26,2.11-0.78,2.91c-0.52,0.8-1.23,1.4-2.12,1.82c-0.9,0.41-1.92,0.62-3.06,0.62h-2.96v6.09h-3.5V44.28z M285.69,51.95
			c0.74,0,1.33-0.21,1.77-0.63c0.44-0.42,0.67-0.98,0.67-1.67c0-0.71-0.22-1.27-0.67-1.69c-0.44-0.42-1.03-0.63-1.77-0.63h-2.98
			v4.63H285.69z"/>
		<path class="st4" d="M294.99,44.28h6.46c1.16,0,2.19,0.2,3.08,0.61c0.9,0.41,1.6,1.01,2.11,1.81c0.51,0.8,0.77,1.78,0.77,2.96
			c0,1.14-0.26,2.11-0.78,2.91c-0.52,0.8-1.23,1.4-2.12,1.82c-0.9,0.41-1.91,0.62-3.06,0.62h-2.96v6.09h-3.5V44.28z M301.47,51.95
			c0.74,0,1.33-0.21,1.77-0.63c0.44-0.42,0.67-0.98,0.67-1.67c0-0.71-0.22-1.27-0.67-1.69c-0.44-0.42-1.03-0.63-1.77-0.63h-2.98
			v4.63H301.47z"/>
		<path class="st4" d="M313.43,44.28h4.65l5.69,16.82h-3.81l-1.13-3.43h-6.16l-1.13,3.43h-3.79L313.43,44.28z M317.85,54.61
			l-2.1-6.48l-2.12,6.48H317.85z"/>
		<path class="st4" d="M327.06,44.28h6.43c1.16,0,2.19,0.2,3.08,0.61c0.9,0.41,1.6,1.01,2.11,1.81c0.51,0.8,0.77,1.78,0.77,2.96
			c0,1.14-0.26,2.12-0.79,2.92c-0.53,0.81-1.23,1.41-2.12,1.82l3.84,6.7h-3.93L333.04,55h-2.48v6.09h-3.5V44.28z M333.52,51.95
			c0.74,0,1.33-0.21,1.77-0.63c0.44-0.42,0.67-0.98,0.67-1.67c0-0.71-0.22-1.27-0.67-1.69c-0.44-0.42-1.03-0.63-1.77-0.63h-2.96
			v4.63H333.52z"/>
		<path class="st4" d="M343.7,44.28H355v3.05h-7.81v3.81h7.36v3.05h-7.36v3.86H355v3.05H343.7V44.28z"/>
		<path class="st4" d="M359.02,44.28h3.5v13.77h7.11v3.05h-10.61V44.28z"/>
	</g>
	<g>
		<path class="st4" d="M261.45,68.27h5.94c1.11,0,2.09,0.21,2.93,0.63c0.84,0.42,1.5,1.02,1.97,1.79c0.47,0.77,0.71,1.7,0.71,2.76
			c0,1.19-0.3,2.2-0.9,3.04c-0.6,0.84-1.41,1.43-2.44,1.77l3.9,6.82H271l-3.63-6.43h-3.7v6.43h-2.21V68.27z M267.45,76.62
			c0.99,0,1.79-0.29,2.4-0.86c0.61-0.57,0.91-1.34,0.91-2.3c0-0.98-0.3-1.75-0.91-2.31s-1.41-0.85-2.4-0.85h-3.79v6.32H267.45z"/>
		<path class="st4" d="M278.08,68.27h10.95v2.03h-8.73v5.33h8.28v2.03h-8.28v5.39h8.73v2.03h-10.95V68.27z"/>
		<path class="st4" d="M297.36,84.71c-1.01-0.43-1.88-1.03-2.62-1.81c-0.74-0.77-1.31-1.69-1.73-2.75
			c-0.41-1.06-0.62-2.22-0.62-3.46c0-1.26,0.2-2.42,0.61-3.48c0.41-1.05,0.98-1.97,1.73-2.75c0.74-0.78,1.62-1.39,2.62-1.82
			c1-0.43,2.1-0.64,3.28-0.64c1.16,0,2.2,0.2,3.13,0.61c0.93,0.41,1.71,0.93,2.35,1.58c0.64,0.65,1.09,1.34,1.37,2.08l-1.99,0.97
			c-0.38-0.98-0.99-1.75-1.83-2.32c-0.84-0.57-1.85-0.86-3.02-0.86c-1.17,0-2.22,0.28-3.13,0.84c-0.91,0.56-1.62,1.33-2.13,2.32
			c-0.51,0.99-0.77,2.15-0.77,3.48c0,1.31,0.26,2.46,0.78,3.45c0.52,0.99,1.23,1.77,2.14,2.33c0.91,0.56,1.95,0.84,3.13,0.84
			c1.02,0,1.94-0.22,2.77-0.65c0.82-0.44,1.47-1.04,1.96-1.81c0.49-0.77,0.73-1.66,0.73-2.66v-0.09h-5.48v-1.92h7.72v1.49
			c0,1.17-0.2,2.23-0.61,3.17c-0.41,0.94-0.96,1.75-1.67,2.43c-0.71,0.68-1.53,1.2-2.46,1.56c-0.93,0.36-1.92,0.54-2.96,0.54
			C299.47,85.35,298.37,85.14,297.36,84.71z"/>
		<path class="st4" d="M312.91,68.27h2.21v16.82h-2.21V68.27z"/>
		<path class="st4" d="M322.84,84.74c-0.89-0.41-1.64-0.95-2.26-1.64c-0.62-0.68-1.06-1.46-1.33-2.31l1.92-0.79
			c0.39,1.08,0.99,1.92,1.81,2.49c0.81,0.58,1.76,0.87,2.84,0.87c0.99,0,1.79-0.23,2.4-0.69c0.61-0.46,0.91-1.08,0.91-1.86
			c0-0.71-0.2-1.26-0.61-1.67c-0.41-0.41-0.99-0.72-1.74-0.95l-3.09-0.95c-1.22-0.38-2.15-0.97-2.8-1.78
			c-0.65-0.81-0.97-1.75-0.97-2.8c0-0.92,0.22-1.73,0.67-2.43c0.44-0.7,1.06-1.25,1.85-1.65c0.79-0.4,1.69-0.6,2.7-0.6
			c1.01,0,1.92,0.18,2.74,0.54c0.82,0.36,1.52,0.85,2.1,1.47c0.58,0.62,1,1.31,1.25,2.08l-1.9,0.79c-0.35-0.93-0.88-1.65-1.61-2.14
			c-0.73-0.5-1.58-0.74-2.56-0.74c-0.9,0-1.63,0.23-2.19,0.69c-0.56,0.46-0.84,1.08-0.84,1.86c0,0.6,0.2,1.15,0.59,1.64
			c0.39,0.49,0.99,0.86,1.78,1.12l2.82,0.84c2.68,0.83,4.02,2.34,4.02,4.54c0,0.92-0.24,1.73-0.71,2.44
			c-0.47,0.71-1.13,1.26-1.96,1.66c-0.84,0.4-1.8,0.6-2.9,0.6C324.71,85.35,323.73,85.15,322.84,84.74z"/>
		<path class="st4" d="M339.07,70.3h-4.56v-2.03h11.29v2.03h-4.49v14.78h-2.23V70.3z"/>
		<path class="st4" d="M349.95,68.27h5.94c1.11,0,2.09,0.21,2.93,0.63c0.84,0.42,1.5,1.02,1.98,1.79c0.47,0.77,0.71,1.7,0.71,2.76
			c0,1.19-0.3,2.2-0.9,3.04c-0.6,0.84-1.41,1.43-2.44,1.77l3.9,6.82h-2.57l-3.63-6.43h-3.7v6.43h-2.21V68.27z M355.95,76.62
			c0.99,0,1.79-0.29,2.4-0.86c0.61-0.57,0.91-1.34,0.91-2.3c0-0.98-0.3-1.75-0.91-2.31c-0.61-0.56-1.41-0.85-2.4-0.85h-3.79v6.32
			H355.95z"/>
		<path class="st4" d="M370.13,77.38l-5.82-9.12h2.51l4.42,6.95l4.4-6.95h2.51l-5.78,9.12v7.7h-2.23V77.38z"/>
	</g>
</g>
</svg>
