<?xml version="1.0" encoding="utf-8"?>
<!-- Generator: Adobe Illustrator 25.3.0, SVG Export Plug-In . SVG Version: 6.00 Build 0)  -->
<svg version="1.1" xmlns="http://www.w3.org/2000/svg" xmlns:xlink="http://www.w3.org/1999/xlink" x="0px" y="0px"
	 viewBox="0 0 660 300" style="enable-background:new 0 0 660 300;" xml:space="preserve">
<g id="Layer_1">
	<g>
		<g>
			<g>
				<path d="M239.26,249.33h-37.98l-62.93-101.18L74.42,249.33H36.24L138.6,87.06L239.26,249.33z M204.34,243.33h25.04L138.56,96.93
					L46.21,243.33h25.17l67-106.03L204.34,243.33z"/>
			</g>
			<g>
				<path d="M137.61,222.13c-46.97,0-85.19-38.21-85.19-85.19c0-46.97,38.21-85.19,85.19-85.19c46.97,0,85.19,38.21,85.19,85.19
					C222.8,183.92,184.59,222.13,137.61,222.13z M137.61,57.26c-43.94,0-79.69,35.75-79.69,79.69s35.75,79.69,79.69,79.69
					s79.69-35.75,79.69-79.69S181.55,57.26,137.61,57.26z"/>
			</g>
		</g>
		<g>
			<path d="M282.3,102.32c-3.13-1.3-5.88-3.14-8.26-5.52c-2.38-2.38-4.23-5.16-5.55-8.36c-1.33-3.2-1.99-6.72-1.99-10.55
				c0-3.84,0.66-7.35,1.99-10.55c1.32-3.2,3.16-5.97,5.52-8.33c2.35-2.35,5.1-4.18,8.26-5.48s6.53-1.95,10.14-1.95
				c3.65,0,7.05,0.65,10.18,1.95c3.13,1.3,5.88,3.13,8.26,5.48c2.38,2.35,4.23,5.14,5.55,8.36c1.32,3.22,1.99,6.73,1.99,10.52
				c0,3.84-0.66,7.35-1.99,10.55c-1.33,3.2-3.18,5.98-5.55,8.36c-2.38,2.38-5.13,4.21-8.26,5.52c-3.13,1.3-6.52,1.95-10.18,1.95
				C288.8,104.27,285.43,103.62,282.3,102.32z M302.34,95.33c2.88-1.8,5.14-4.22,6.78-7.26c1.64-3.04,2.47-6.43,2.47-10.18
				c0-3.75-0.82-7.13-2.47-10.14c-1.64-3.01-3.91-5.42-6.78-7.23c-2.88-1.8-6.19-2.71-9.94-2.71c-3.75,0-7.06,0.9-9.94,2.71
				c-2.88,1.81-5.14,4.21-6.78,7.23c-1.64,3.02-2.47,6.4-2.47,10.14c0,3.75,0.82,7.14,2.47,10.18c1.64,3.04,3.92,5.46,6.82,7.26
				c2.9,1.81,6.2,2.71,9.9,2.71C296.15,98.04,299.46,97.14,302.34,95.33z"/>
			<path d="M328.86,52.4h18.02c3.38,0,6.35,0.64,8.91,1.92c2.56,1.28,4.56,3.1,6,5.45c1.44,2.35,2.16,5.15,2.16,8.39
				c0,3.2-0.72,5.98-2.16,8.36c-1.44,2.38-3.44,4.2-6,5.48c-2.56,1.28-5.53,1.92-8.91,1.92h-11.31v19.53h-6.71V52.4z M347.09,77.76
				c3.06,0,5.5-0.87,7.33-2.6c1.83-1.74,2.74-4.07,2.74-6.99c0-2.97-0.92-5.31-2.74-7.02c-1.83-1.71-4.27-2.57-7.33-2.57h-11.51
				v19.19H347.09z"/>
			<path d="M375.11,52.4h33.23v6.17h-26.52v16.17h25.15v6.17h-25.15v16.38h26.52v6.17h-33.23V52.4z"/>
			<path d="M422.73,52.4h5.62l26.79,37.69V52.4h6.78v51.05h-5.62l-26.86-38.24v38.24h-6.71V52.4z"/>
		</g>
		<g>
			<path d="M283.35,125.23h14.12l17.27,51.05h-11.58l-3.43-10.42h-18.71l-3.43,10.42h-11.51L283.35,125.23z M296.78,156.61
				l-6.37-19.67l-6.44,19.67H296.78z"/>
			<path d="M323.43,125.23h19.6c3.52,0,6.63,0.62,9.35,1.85c2.72,1.23,4.85,3.06,6.41,5.48c1.55,2.42,2.33,5.41,2.33,8.98
				c0,3.47-0.79,6.42-2.36,8.84c-1.58,2.42-3.72,4.26-6.44,5.52c-2.72,1.26-5.81,1.88-9.29,1.88h-8.98v18.5h-10.62V125.23z
				 M343.1,148.53c2.24,0,4.03-0.64,5.38-1.92c1.35-1.28,2.02-2.97,2.02-5.07c0-2.15-0.67-3.86-2.02-5.14
				c-1.35-1.28-3.14-1.92-5.38-1.92h-9.04v14.05H343.1z"/>
			<path d="M371.33,125.23h19.6c3.52,0,6.63,0.62,9.35,1.85c2.72,1.23,4.85,3.06,6.41,5.48c1.55,2.42,2.33,5.41,2.33,8.98
				c0,3.47-0.79,6.42-2.36,8.84c-1.58,2.42-3.72,4.26-6.44,5.52c-2.72,1.26-5.81,1.88-9.28,1.88h-8.98v18.5h-10.62V125.23z
				 M390.99,148.53c2.24,0,4.03-0.64,5.38-1.92c1.35-1.28,2.02-2.97,2.02-5.07c0-2.15-0.67-3.86-2.02-5.14
				c-1.35-1.28-3.14-1.92-5.38-1.92h-9.04v14.05H390.99z"/>
			<path d="M427.31,125.23h14.12l17.27,51.05h-11.58l-3.43-10.42h-18.71l-3.43,10.42h-11.51L427.31,125.23z M440.74,156.61
				l-6.37-19.67l-6.44,19.67H440.74z"/>
			<path d="M468.7,125.23h19.53c3.52,0,6.63,0.62,9.35,1.85c2.72,1.23,4.85,3.06,6.41,5.48c1.55,2.42,2.33,5.41,2.33,8.98
				c0,3.47-0.8,6.43-2.4,8.87c-1.6,2.44-3.75,4.28-6.44,5.52l11.65,20.35H497.2l-10.35-18.5h-7.54v18.5H468.7V125.23z
				 M488.29,148.53c2.24,0,4.03-0.64,5.38-1.92c1.35-1.28,2.02-2.97,2.02-5.07c0-2.15-0.67-3.86-2.02-5.14
				c-1.35-1.28-3.14-1.92-5.38-1.92h-8.98v14.05H488.29z"/>
			<path d="M519.2,125.23h34.33v9.25h-23.71v11.58h22.34v9.25h-22.34v11.72h23.71v9.25H519.2V125.23z"/>
			<path d="M565.72,125.23h10.62v41.8h21.58v9.25h-32.21V125.23z"/>
		</g>
		<g>
			<path d="M269.5,198.06h18.02c3.38,0,6.35,0.64,8.91,1.92c2.56,1.28,4.56,3.1,6,5.45s2.16,5.15,2.16,8.39
				c0,3.61-0.91,6.68-2.74,9.22c-1.83,2.54-4.29,4.33-7.4,5.38l11.85,20.69h-7.81l-11.03-19.53h-11.24v19.53h-6.71V198.06z
				 M287.73,223.41c3.02,0,5.45-0.87,7.3-2.6c1.85-1.74,2.77-4.07,2.77-6.99c0-2.97-0.92-5.31-2.77-7.02s-4.28-2.57-7.3-2.57h-11.51
				v19.19H287.73z"/>
			<path d="M320,198.06h33.23v6.17h-26.52v16.17h25.15v6.17h-25.15v16.38h26.52v6.17H320V198.06z"/>
			<path d="M378.52,247.97c-3.06-1.3-5.71-3.13-7.95-5.48c-2.24-2.35-3.99-5.14-5.24-8.36c-1.26-3.22-1.88-6.73-1.88-10.52
				c0-3.84,0.62-7.35,1.85-10.55c1.23-3.2,2.98-5.98,5.24-8.36c2.26-2.38,4.91-4.21,7.95-5.52c3.04-1.3,6.36-1.95,9.97-1.95
				c3.52,0,6.68,0.62,9.49,1.85s5.18,2.83,7.13,4.8c1.94,1.96,3.32,4.07,4.15,6.3l-6.03,2.95c-1.14-2.97-2.99-5.32-5.55-7.06
				c-2.56-1.74-5.62-2.6-9.18-2.6s-6.73,0.85-9.49,2.54c-2.76,1.69-4.92,4.04-6.48,7.06c-1.55,3.02-2.33,6.53-2.33,10.55
				c0,3.97,0.79,7.47,2.36,10.48c1.58,3.02,3.75,5.37,6.51,7.06c2.76,1.69,5.93,2.54,9.49,2.54c3.11,0,5.9-0.66,8.39-1.99
				c2.49-1.32,4.48-3.15,5.96-5.48c1.48-2.33,2.23-5.03,2.23-8.09v-0.27h-16.65v-5.82h23.43v4.52c0,3.56-0.62,6.77-1.85,9.63
				c-1.23,2.86-2.92,5.31-5.07,7.37c-2.15,2.06-4.64,3.63-7.47,4.73c-2.83,1.1-5.82,1.64-8.98,1.64
				C384.92,249.93,381.58,249.27,378.52,247.97z"/>
			<path d="M425.73,198.06h6.71v51.05h-6.71V198.06z"/>
			<path d="M455.88,248.08c-2.7-1.23-4.98-2.89-6.85-4.97c-1.87-2.08-3.22-4.42-4.04-7.02l5.83-2.4c1.19,3.29,3.01,5.81,5.48,7.57
				c2.47,1.76,5.34,2.64,8.63,2.64c3.01,0,5.45-0.7,7.3-2.09c1.85-1.39,2.77-3.28,2.77-5.65c0-2.15-0.62-3.84-1.85-5.07
				s-2.99-2.19-5.28-2.88l-9.39-2.88c-3.7-1.14-6.53-2.95-8.5-5.41c-1.96-2.47-2.95-5.3-2.95-8.5c0-2.79,0.67-5.24,2.02-7.37
				c1.35-2.12,3.22-3.79,5.62-5c2.4-1.21,5.13-1.82,8.19-1.82c3.06,0,5.83,0.55,8.33,1.64c2.49,1.1,4.61,2.58,6.37,4.45
				c1.76,1.87,3.03,3.97,3.8,6.3l-5.76,2.4c-1.05-2.83-2.68-5-4.9-6.51c-2.22-1.51-4.81-2.26-7.78-2.26c-2.74,0-4.96,0.7-6.65,2.09
				c-1.69,1.39-2.54,3.28-2.54,5.65c0,1.83,0.59,3.48,1.78,4.97c1.19,1.49,2.99,2.62,5.41,3.39l8.57,2.54
				c8.13,2.51,12.2,7.1,12.2,13.77c0,2.79-0.72,5.25-2.16,7.4c-1.44,2.15-3.43,3.83-5.96,5.04c-2.54,1.21-5.47,1.82-8.8,1.82
				C461.55,249.93,458.58,249.31,455.88,248.08z"/>
			<path d="M505.15,204.22h-13.84v-6.17h34.26v6.17h-13.64v44.88h-6.78V204.22z"/>
			<path d="M538.18,198.06h18.02c3.38,0,6.35,0.64,8.91,1.92c2.56,1.28,4.56,3.1,6,5.45c1.44,2.35,2.16,5.15,2.16,8.39
				c0,3.61-0.91,6.68-2.74,9.22c-1.83,2.54-4.29,4.33-7.4,5.38l11.85,20.69h-7.81l-11.03-19.53h-11.24v19.53h-6.71V198.06z
				 M556.4,223.41c3.02,0,5.45-0.87,7.3-2.6c1.85-1.74,2.78-4.07,2.78-6.99c0-2.97-0.93-5.31-2.78-7.02
				c-1.85-1.71-4.28-2.57-7.3-2.57h-11.51v19.19H556.4z"/>
			<path d="M599.43,225.74l-17.68-27.68h7.61l13.43,21.1l13.36-21.1h7.61l-17.54,27.68v23.37h-6.78V225.74z"/>
		</g>
	</g>
</g>
<g id="Layer_2">
</g>
<g id="Layer_3">
</g>
</svg>
